<?xml version="1.0" encoding="UTF-8"?>
<!DOCTYPE svg PUBLIC "-//W3C//DTD SVG 1.1//EN" "http://www.w3.org/Graphics/SVG/1.1/DTD/svg11.dtd">
<svg xmlns="http://www.w3.org/2000/svg" version="1.1" width="149px" height="169px" shape-rendering="geometricPrecision" style="shape-rendering:geometricPrecision; text-rendering:geometricPrecision; image-rendering:optimizeQuality; fill-rule:evenodd; clip-rule:evenodd; viewBox=0 0 640 640" xmlns:xlink="http://www.w3.org/1999/xlink">
<g><path style="opacity:0.02" fill="#98472f" d="M 118.5,7.5 C 116.5,7.5 114.5,7.5 112.5,7.5C 108.769,6.80448 104.935,6.13781 101,5.5C 96.3336,6.02382 91.5003,6.69049 86.5,7.5C 84.5,7.5 82.5,7.5 80.5,7.5C 93.1667,3.5 105.833,3.5 118.5,7.5 Z M 112.5,7.5 C 103.833,7.5 95.1667,7.5 86.5,7.5C 91.5003,6.69049 96.3336,6.02382 101,5.5C 104.935,6.13781 108.769,6.80448 112.5,7.5 Z"/></g>
<g><path style="opacity:0.02" fill="#98472f" d="M 80.5,7.5 C 80.5,7.83333 80.5,8.16667 80.5,8.5C 78.901,8.23219 77.5676,8.56552 76.5,9.5C 75.1266,9.65668 73.7932,9.49001 72.5,9C 75.0627,7.92074 77.7294,7.42074 80.5,7.5 Z"/></g>
<g><path style="opacity:0.02" fill="#98472f" d="M 118.5,8.5 C 118.5,8.16667 118.5,7.83333 118.5,7.5C 121.271,7.42074 123.937,7.92074 126.5,9C 125.207,9.49001 123.873,9.65668 122.5,9.5C 121.432,8.56552 120.099,8.23219 118.5,8.5 Z"/></g>
<g><path style="opacity:1" fill="#e75223" d="M 130.5,14.5 C 127.903,14.7208 127.903,15.2208 130.5,16C 128.152,16.1102 126.652,17.2769 126,19.5C 123.632,37.3562 116.632,55.3562 105,73.5C 104.667,73.1667 104.333,72.8333 104,72.5C 103.682,74.0609 102.849,75.2276 101.5,76C 101.833,76.3333 102.167,76.6667 102.5,77C 101.333,77.5 100.5,78.3333 100,79.5C 98.3335,78.6598 98.1669,79.1598 99.5,81C 97.8333,81.3333 96.1667,81.6667 94.5,82C 97.1667,82.3333 99.8333,82.6667 102.5,83C 99.3054,83.1805 96.3054,83.6805 93.5,84.5C 88.8333,87.1667 85.1667,90.8333 82.5,95.5C 81.4415,94.3998 80.6082,93.0664 80,91.5C 79.6012,91.7284 79.4346,92.0618 79.5,92.5C 71.484,82.2736 62.984,81.9403 54,91.5C 50.1152,99.9576 51.6152,107.291 58.5,113.5C 56.6923,114.317 55.1923,113.65 54,111.5C 52.6914,113.891 51.6914,113.891 51,111.5C 50.7216,112.416 50.2216,113.082 49.5,113.5C 47.7411,108.059 45.0745,103.059 41.5,98.5C 48.1072,94.2111 50.2738,88.2111 48,80.5C 46.8236,78.8043 45.657,77.1376 44.5,75.5C 43.9717,74.2794 43.305,73.1127 42.5,72C 45.7672,72.0631 47.9339,70.5631 49,67.5C 49.3333,67.8333 49.6667,68.1667 50,68.5C 62.5787,58.7818 71.912,47.1151 78,33.5C 79.2846,29.3173 80.7846,25.1507 82.5,21C 82.2645,20.1268 81.9312,19.2935 81.5,18.5C 82.898,16.8697 83.898,15.0363 84.5,13C 82.6183,12.8019 80.9516,12.3019 79.5,11.5C 96.8765,7.06538 113.877,8.06538 130.5,14.5 Z"/></g>
<g><path style="opacity:1" fill="#e75629" d="M 79.5,11.5 C 80.9516,12.3019 82.6183,12.8019 84.5,13C 83.898,15.0363 82.898,16.8697 81.5,18.5C 81.9312,19.2935 82.2645,20.1268 82.5,21C 80.7846,25.1507 79.2846,29.3173 78,33.5C 71.912,47.1151 62.5787,58.7818 50,68.5C 49.6667,68.1667 49.3333,67.8333 49,67.5C 47.9339,70.5631 45.7672,72.0631 42.5,72C 43.305,73.1127 43.9717,74.2794 44.5,75.5C 37.569,72.4265 30.4023,71.7599 23,73.5C 22.5001,86.8292 22.3334,100.163 22.5,113.5C 21.669,100.673 21.169,87.6731 21,74.5C 20.6667,87.5 20.3333,100.5 20,113.5C 19.6667,101.833 19.3333,90.1667 19,78.5C 18.7837,80.3839 18.117,82.0506 17,83.5C 16.6667,83.1667 16.3333,82.8333 16,82.5C 13.6043,84.8928 11.1043,86.2262 8.5,86.5C 8.83333,83.1667 9.16667,79.8333 9.5,76.5C 10.6772,74.3206 11.6772,71.9872 12.5,69.5C 13.038,67.8828 13.3713,66.2161 13.5,64.5C 14.4013,63.7095 15.0679,62.7095 15.5,61.5C 15.5,61.1667 15.5,60.8333 15.5,60.5C 16.1667,60.5 16.5,60.1667 16.5,59.5C 16.5,59.1667 16.5,58.8333 16.5,58.5C 17.1667,58.5 17.5,58.1667 17.5,57.5C 17.5,57.1667 17.5,56.8333 17.5,56.5C 18.1667,56.5 18.5,56.1667 18.5,55.5C 18.5,55.1667 18.5,54.8333 18.5,54.5C 19.3382,54.1583 19.6716,53.4916 19.5,52.5C 20.1667,52.5 20.5,52.1667 20.5,51.5C 21.1667,51.5 21.5,51.1667 21.5,50.5C 21.5,50.1667 21.5,49.8333 21.5,49.5C 22.1667,49.5 22.5,49.1667 22.5,48.5C 23.1667,48.5 23.5,48.1667 23.5,47.5C 23.5,47.1667 23.5,46.8333 23.5,46.5C 24.1667,46.5 24.5,46.1667 24.5,45.5C 24.8333,45.5 25.1667,45.5 25.5,45.5C 36.3493,32.1601 49.6826,21.9935 65.5,15C 70.0068,13.1072 74.6734,11.9405 79.5,11.5 Z"/></g>
<g><path style="opacity:0.02" fill="#6e3524" d="M 129.5,11.5 C 129.735,10.9033 130.235,10.5699 131,10.5C 138.564,13.0287 145.398,16.6954 151.5,21.5C 150.833,21.5 150.167,21.5 149.5,21.5C 149.167,20.1667 148.833,20.1667 148.5,21.5C 147.833,21.5 147.5,21.1667 147.5,20.5C 147.5,19.8333 147.167,19.5 146.5,19.5C 146.158,18.6618 145.492,18.3284 144.5,18.5C 144.167,17.1667 143.833,17.1667 143.5,18.5C 142.833,18.5 142.5,18.1667 142.5,17.5C 142.167,16.1667 141.833,16.1667 141.5,17.5C 141.167,17.5 140.833,17.5 140.5,17.5C 140.5,17.1667 140.5,16.8333 140.5,16.5C 140.167,15.1667 139.833,15.1667 139.5,16.5C 138.833,16.5 138.5,16.1667 138.5,15.5C 138.158,14.6618 137.492,14.3284 136.5,14.5C 136.158,13.6618 135.492,13.3284 134.5,13.5C 133.833,12.1667 133.167,12.1667 132.5,13.5C 131.833,13.5 131.5,13.1667 131.5,12.5C 131.158,11.6618 130.492,11.3284 129.5,11.5 Z"/></g>
<g><path style="opacity:1" fill="#e54d1e" d="M 130.5,14.5 C 133.829,15.4991 137.162,16.4991 140.5,17.5C 144.323,20.9157 148.657,23.5824 153.5,25.5C 153.833,25.5 154.167,25.5 154.5,25.5C 154.833,25.5 155.167,25.5 155.5,25.5C 155.5,26.1667 155.833,26.5 156.5,26.5C 156.5,27.1667 156.833,27.5 157.5,27.5C 157.5,28.1667 157.833,28.5 158.5,28.5C 158.5,29.1667 158.833,29.5 159.5,29.5C 161.766,33.4356 164.766,36.7689 168.5,39.5C 169.71,39.9321 170.71,40.5987 171.5,41.5C 171.5,42.1667 171.833,42.5 172.5,42.5C 172.5,43.1667 172.833,43.5 173.5,43.5C 173.5,43.8333 173.5,44.1667 173.5,44.5C 173.5,45.1667 173.833,45.5 174.5,45.5C 174.5,46.1667 174.833,46.5 175.5,46.5C 175.5,47.1667 175.833,47.5 176.5,47.5C 176.5,47.8333 176.5,48.1667 176.5,48.5C 176.5,49.1667 176.833,49.5 177.5,49.5C 177.5,49.8333 177.5,50.1667 177.5,50.5C 177.5,51.1667 177.833,51.5 178.5,51.5C 178.5,52.1667 178.833,52.5 179.5,52.5C 179.328,53.4916 179.662,54.1583 180.5,54.5C 180.5,54.8333 180.5,55.1667 180.5,55.5C 180.5,55.8333 180.5,56.1667 180.5,56.5C 179.115,55.4264 177.949,54.0931 177,52.5C 176.86,54.2555 177.36,55.9222 178.5,57.5C 176.296,59.5012 174.629,62.5012 173.5,66.5C 171.615,67.1973 171.282,68.1973 172.5,69.5C 169.597,76.288 166.597,82.6214 163.5,88.5C 163.527,90.5266 163.527,92.5266 163.5,94.5C 161.031,91.8562 158.698,89.0228 156.5,86C 154.866,85.5065 153.199,85.3398 151.5,85.5C 151.372,87.6547 151.872,89.6547 153,91.5C 155.536,94.0809 157.702,96.9143 159.5,100C 156.628,104.238 153.628,108.404 150.5,112.5C 151.193,113.518 151.859,114.518 152.5,115.5C 151.105,116.815 150.105,116.481 149.5,114.5C 149.714,112.856 149.38,111.356 148.5,110C 141.174,109.5 133.841,109.334 126.5,109.5C 126.5,105.5 126.5,101.5 126.5,97.5C 131.695,97.8205 136.695,97.4872 141.5,96.5C 142.649,96.2089 143.316,95.3756 143.5,94C 143.472,92.9302 143.139,92.0968 142.5,91.5C 137.36,90.5119 132.026,90.1786 126.5,90.5C 126.5,86.8333 126.5,83.1667 126.5,79.5C 133.687,79.8245 140.687,79.4912 147.5,78.5C 149.745,77.1722 150.078,75.3388 148.5,73C 139.5,72.3333 130.5,72.3333 121.5,73C 121,73.5 120.5,74 120,74.5C 119.333,87.5 119.333,100.5 120,113.5C 120.717,114.044 121.217,114.711 121.5,115.5C 129.753,116.345 138.753,116.845 148.5,117C 145.024,118.254 141.358,118.921 137.5,119C 139.167,119.333 140.833,119.667 142.5,120C 123.534,140.856 102.367,157.023 79,168.5C 78.6667,168.167 78.3333,167.833 78,167.5C 77.3333,168.833 76.3333,169.833 75,170.5C 73.6667,170.5 72.3333,170.5 71,170.5C 69.6646,172.605 67.9979,173.271 66,172.5C 65.3333,173.833 64.3333,174.833 63,175.5C 60.6667,176.833 58.3333,176.833 56,175.5C 55.3333,176.5 55.3333,177.5 56,178.5C 57.417,179.078 58.2504,180.078 58.5,181.5C 25.6726,164.051 8.67263,136.551 7.5,99C 7.53044,94.7523 7.86377,90.5856 8.5,86.5C 11.1043,86.2262 13.6043,84.8928 16,82.5C 16.3333,82.8333 16.6667,83.1667 17,83.5C 18.117,82.0506 18.7837,80.3839 19,78.5C 19.3333,90.1667 19.6667,101.833 20,113.5C 20.3333,100.5 20.6667,87.5 21,74.5C 21.169,87.6731 21.669,100.673 22.5,113.5C 24.1978,116.124 26.0312,116.124 28,113.5C 28.4992,108.845 28.6658,104.179 28.5,99.5C 30.8568,99.3367 33.1902,99.5034 35.5,100C 38.4411,105.272 41.7744,110.272 45.5,115C 47.3524,115.773 48.6857,115.273 49.5,113.5C 50.2216,113.082 50.7216,112.416 51,111.5C 51.6914,113.891 52.6914,113.891 54,111.5C 55.1923,113.65 56.6923,114.317 58.5,113.5C 65.1141,116.487 71.4474,115.987 77.5,112C 79.0628,109.524 78.3962,108.024 75.5,107.5C 71.2987,109.234 66.9654,109.734 62.5,109C 60.0771,107.429 58.7438,105.263 58.5,102.5C 65.5079,102.666 72.5079,102.5 79.5,102C 80.7003,98.8689 80.7003,95.7023 79.5,92.5C 79.4346,92.0618 79.6012,91.7284 80,91.5C 80.6082,93.0664 81.4415,94.3998 82.5,95.5C 81.5337,110.036 88.2004,116.536 102.5,115C 104.286,114.215 105.786,113.049 107,111.5C 105.874,119.167 101.374,122 93.5,120C 91.3228,118.485 89.1561,116.985 87,115.5C 84.6807,116.409 84.0141,118.075 85,120.5C 92.2508,127.675 100.084,128.341 108.5,122.5C 110.499,120.507 111.999,118.173 113,115.5C 113.896,107.754 113.563,100.087 112,92.5C 107.463,86.1501 101.297,83.4835 93.5,84.5C 96.3054,83.6805 99.3054,83.1805 102.5,83C 99.8333,82.6667 97.1667,82.3333 94.5,82C 96.1667,81.6667 97.8333,81.3333 99.5,81C 98.1669,79.1598 98.3335,78.6598 100,79.5C 100.5,78.3333 101.333,77.5 102.5,77C 102.167,76.6667 101.833,76.3333 101.5,76C 102.849,75.2276 103.682,74.0609 104,72.5C 104.333,72.8333 104.667,73.1667 105,73.5C 116.632,55.3562 123.632,37.3562 126,19.5C 126.652,17.2769 128.152,16.1102 130.5,16C 127.903,15.2208 127.903,14.7208 130.5,14.5 Z"/></g>
<g><path style="opacity:0.02" fill="#542a1d" d="M 69.5,11.5 C 68.5084,11.3284 67.8417,11.6618 67.5,12.5C 67.5,13.1667 67.1667,13.5 66.5,13.5C 65.8333,12.1667 65.1667,12.1667 64.5,13.5C 63.5084,13.3284 62.8417,13.6618 62.5,14.5C 61.5084,14.3284 60.8417,14.6618 60.5,15.5C 60.5,16.1667 60.1667,16.5 59.5,16.5C 59.1667,15.1667 58.8333,15.1667 58.5,16.5C 58.5,17.1667 58.1667,17.5 57.5,17.5C 57.1667,16.1667 56.8333,16.1667 56.5,17.5C 56.5,18.1667 56.1667,18.5 55.5,18.5C 55.1667,17.1667 54.8333,17.1667 54.5,18.5C 53.5084,18.3284 52.8417,18.6618 52.5,19.5C 51.8333,19.5 51.5,19.8333 51.5,20.5C 51.5,21.1667 51.1667,21.5 50.5,21.5C 50.1667,20.1667 49.8333,20.1667 49.5,21.5C 48.8333,21.5 48.1667,21.5 47.5,21.5C 53.6024,16.6954 60.4357,13.0287 68,10.5C 68.7648,10.5699 69.2648,10.9033 69.5,11.5 Z"/></g>
<g><path style="opacity:0.737" fill="#dd6c49" d="M 86.5,7.5 C 95.1667,7.5 103.833,7.5 112.5,7.5C 114.265,8.46138 116.265,8.79472 118.5,8.5C 119.568,9.43448 120.901,9.76781 122.5,9.5C 124.599,10.6118 126.933,11.2785 129.5,11.5C 129.842,12.3382 130.508,12.6716 131.5,12.5C 131.5,13.1667 131.833,13.5 132.5,13.5C 133.167,13.5 133.833,13.5 134.5,13.5C 134.842,14.3382 135.508,14.6716 136.5,14.5C 136.842,15.3382 137.508,15.6716 138.5,15.5C 138.5,16.1667 138.833,16.5 139.5,16.5C 139.833,16.5 140.167,16.5 140.5,16.5C 140.5,16.8333 140.5,17.1667 140.5,17.5C 137.162,16.4991 133.829,15.4991 130.5,14.5C 113.877,8.06538 96.8765,7.06538 79.5,11.5C 74.6734,11.9405 70.0068,13.1072 65.5,15C 49.6826,21.9935 36.3493,32.1601 25.5,45.5C 25.5,45.1667 25.5,44.8333 25.5,44.5C 25.5,44.1667 25.5,43.8333 25.5,43.5C 26.1667,43.5 26.5,43.1667 26.5,42.5C 27.1667,42.5 27.5,42.1667 27.5,41.5C 28.8333,40.8333 29.8333,39.8333 30.5,38.5C 30.5,38.1667 30.5,37.8333 30.5,37.5C 31.1667,37.5 31.5,37.1667 31.5,36.5C 32.1667,36.5 32.5,36.1667 32.5,35.5C 33.1667,35.5 33.5,35.1667 33.5,34.5C 34.1667,34.5 34.5,34.1667 34.5,33.5C 35.1667,33.5 35.5,33.1667 35.5,32.5C 36.1667,32.5 36.5,32.1667 36.5,31.5C 37.1667,31.5 37.5,31.1667 37.5,30.5C 38.1667,30.5 38.5,30.1667 38.5,29.5C 38.8333,29.5 39.1667,29.5 39.5,29.5C 40.1667,29.5 40.5,29.1667 40.5,28.5C 41.1667,28.5 41.5,28.1667 41.5,27.5C 42.1667,27.5 42.5,27.1667 42.5,26.5C 43.1667,26.5 43.5,26.1667 43.5,25.5C 43.8333,25.5 44.1667,25.5 44.5,25.5C 45.1667,25.5 45.5,25.1667 45.5,24.5C 46.1667,24.5 46.5,24.1667 46.5,23.5C 47.1667,23.5 47.5,23.1667 47.5,22.5C 48.4916,22.6716 49.1583,22.3382 49.5,21.5C 49.8333,21.5 50.1667,21.5 50.5,21.5C 51.1667,21.5 51.5,21.1667 51.5,20.5C 52.1667,20.5 52.5,20.1667 52.5,19.5C 53.4916,19.6716 54.1583,19.3382 54.5,18.5C 54.8333,18.5 55.1667,18.5 55.5,18.5C 56.1667,18.5 56.5,18.1667 56.5,17.5C 56.8333,17.5 57.1667,17.5 57.5,17.5C 58.1667,17.5 58.5,17.1667 58.5,16.5C 58.8333,16.5 59.1667,16.5 59.5,16.5C 60.1667,16.5 60.5,16.1667 60.5,15.5C 61.4916,15.6716 62.1583,15.3382 62.5,14.5C 63.4916,14.6716 64.1583,14.3382 64.5,13.5C 65.1667,13.5 65.8333,13.5 66.5,13.5C 67.1667,13.5 67.5,13.1667 67.5,12.5C 68.4916,12.6716 69.1583,12.3382 69.5,11.5C 72.0673,11.2785 74.4006,10.6118 76.5,9.5C 78.099,9.76781 79.4324,9.43448 80.5,8.5C 82.7354,8.79472 84.7354,8.46138 86.5,7.5 Z"/></g>
<g><path style="opacity:0.463" fill="#dc6a46" d="M 140.5,17.5 C 140.833,17.5 141.167,17.5 141.5,17.5C 141.833,17.5 142.167,17.5 142.5,17.5C 142.5,18.1667 142.833,18.5 143.5,18.5C 143.833,18.5 144.167,18.5 144.5,18.5C 144.842,19.3382 145.508,19.6716 146.5,19.5C 147.167,19.5 147.5,19.8333 147.5,20.5C 147.5,21.1667 147.833,21.5 148.5,21.5C 148.833,21.5 149.167,21.5 149.5,21.5C 149.842,22.3382 150.508,22.6716 151.5,22.5C 151.5,23.1667 151.833,23.5 152.5,23.5C 152.5,24.1667 152.833,24.5 153.5,24.5C 153.5,24.8333 153.5,25.1667 153.5,25.5C 148.657,23.5824 144.323,20.9157 140.5,17.5 Z"/></g>
<g><path style="opacity:0.788" fill="#d96945" d="M 159.5,29.5 C 159.833,29.5 160.167,29.5 160.5,29.5C 160.5,30.1667 160.833,30.5 161.5,30.5C 161.5,31.1667 161.833,31.5 162.5,31.5C 162.5,32.1667 162.833,32.5 163.5,32.5C 163.5,33.1667 163.833,33.5 164.5,33.5C 164.5,34.1667 164.833,34.5 165.5,34.5C 165.5,35.1667 165.833,35.5 166.5,35.5C 166.5,36.1667 166.833,36.5 167.5,36.5C 167.5,37.1667 167.833,37.5 168.5,37.5C 168.5,37.8333 168.5,38.1667 168.5,38.5C 168.5,38.8333 168.5,39.1667 168.5,39.5C 164.766,36.7689 161.766,33.4356 159.5,29.5 Z"/></g>
<g><path style="opacity:0.02" fill="#4f261a" d="M 47.5,21.5 C 47.5,21.8333 47.5,22.1667 47.5,22.5C 46.8333,22.5 46.5,22.8333 46.5,23.5C 45.8333,23.5 45.5,23.8333 45.5,24.5C 45.5,25.1667 45.1667,25.5 44.5,25.5C 44.1667,24.1667 43.8333,24.1667 43.5,25.5C 42.8333,25.5 42.5,25.8333 42.5,26.5C 41.8333,26.5 41.5,26.8333 41.5,27.5C 40.8333,27.5 40.5,27.8333 40.5,28.5C 40.5,29.1667 40.1667,29.5 39.5,29.5C 39.1667,28.1667 38.8333,28.1667 38.5,29.5C 37.8333,29.5 37.5,29.8333 37.5,30.5C 36.8333,30.5 36.5,30.8333 36.5,31.5C 35.8333,31.5 35.5,31.8333 35.5,32.5C 34.8333,32.5 34.5,32.8333 34.5,33.5C 33.8333,33.5 33.5,33.8333 33.5,34.5C 32.8333,34.5 32.5,34.8333 32.5,35.5C 31.8333,35.5 31.5,35.8333 31.5,36.5C 30.8333,36.5 30.5,36.8333 30.5,37.5C 29.1667,37.8333 29.1667,38.1667 30.5,38.5C 29.8333,39.8333 28.8333,40.8333 27.5,41.5C 26.8333,41.5 26.5,41.8333 26.5,42.5C 25.8333,42.5 25.5,42.8333 25.5,43.5C 24.1667,43.8333 24.1667,44.1667 25.5,44.5C 25.5,44.8333 25.5,45.1667 25.5,45.5C 25.1667,45.5 24.8333,45.5 24.5,45.5C 23.8333,45.5 23.5,45.8333 23.5,46.5C 22.1667,46.8333 22.1667,47.1667 23.5,47.5C 23.5,48.1667 23.1667,48.5 22.5,48.5C 21.8333,48.5 21.5,48.8333 21.5,49.5C 20.1667,49.8333 20.1667,50.1667 21.5,50.5C 21.5,51.1667 21.1667,51.5 20.5,51.5C 19.8333,51.5 19.5,51.8333 19.5,52.5C 19.6716,53.4916 19.3382,54.1583 18.5,54.5C 17.1667,54.8333 17.1667,55.1667 18.5,55.5C 18.5,56.1667 18.1667,56.5 17.5,56.5C 16.1667,56.8333 16.1667,57.1667 17.5,57.5C 17.5,58.1667 17.1667,58.5 16.5,58.5C 15.1667,58.8333 15.1667,59.1667 16.5,59.5C 16.5,60.1667 16.1667,60.5 15.5,60.5C 14.1667,60.8333 14.1667,61.1667 15.5,61.5C 15.0679,62.7095 14.4013,63.7095 13.5,64.5C 13.5875,61.4017 13.0875,61.0684 12,63.5C 11.6012,63.2716 11.4346,62.9382 11.5,62.5C 17.5905,47.9016 26.9238,35.7349 39.5,26C 42.0594,24.2226 44.7261,22.7226 47.5,21.5 Z"/></g>
<g><path style="opacity:0.035" fill="#57291b" d="M 151.5,22.5 C 151.5,22.1667 151.5,21.8333 151.5,21.5C 164.096,28.4285 174.096,38.0951 181.5,50.5C 180.957,50.56 180.624,50.8933 180.5,51.5C 183.831,56.6633 186.498,62.1633 188.5,68C 188.164,69.0299 187.497,69.5299 186.5,69.5C 185.892,66.6733 184.892,64.0067 183.5,61.5C 184.833,61.1667 184.833,60.8333 183.5,60.5C 182.833,60.5 182.5,60.1667 182.5,59.5C 183.833,59.1667 183.833,58.8333 182.5,58.5C 181.833,58.5 181.5,58.1667 181.5,57.5C 182.833,57.1667 182.833,56.8333 181.5,56.5C 181.167,56.5 180.833,56.5 180.5,56.5C 180.5,56.1667 180.5,55.8333 180.5,55.5C 181.833,55.1667 181.833,54.8333 180.5,54.5C 179.662,54.1583 179.328,53.4916 179.5,52.5C 178.833,52.5 178.5,52.1667 178.5,51.5C 177.833,51.5 177.5,51.1667 177.5,50.5C 178.833,50.1667 178.833,49.8333 177.5,49.5C 176.833,49.5 176.5,49.1667 176.5,48.5C 176.5,48.1667 176.5,47.8333 176.5,47.5C 175.833,47.5 175.5,47.1667 175.5,46.5C 174.833,46.5 174.5,46.1667 174.5,45.5C 173.833,45.5 173.5,45.1667 173.5,44.5C 174.833,44.1667 174.833,43.8333 173.5,43.5C 172.833,43.5 172.5,43.1667 172.5,42.5C 171.833,42.5 171.5,42.1667 171.5,41.5C 170.71,40.5987 169.71,39.9321 168.5,39.5C 168.5,39.1667 168.5,38.8333 168.5,38.5C 169.833,38.1667 169.833,37.8333 168.5,37.5C 167.833,37.5 167.5,37.1667 167.5,36.5C 166.833,36.5 166.5,36.1667 166.5,35.5C 165.833,35.5 165.5,35.1667 165.5,34.5C 164.833,34.5 164.5,34.1667 164.5,33.5C 163.833,33.5 163.5,33.1667 163.5,32.5C 162.833,32.5 162.5,32.1667 162.5,31.5C 161.833,31.5 161.5,31.1667 161.5,30.5C 160.833,30.5 160.5,30.1667 160.5,29.5C 160.167,28.1667 159.833,28.1667 159.5,29.5C 158.833,29.5 158.5,29.1667 158.5,28.5C 157.833,28.5 157.5,28.1667 157.5,27.5C 156.833,27.5 156.5,27.1667 156.5,26.5C 155.833,26.5 155.5,26.1667 155.5,25.5C 155.167,24.1667 154.833,24.1667 154.5,25.5C 154.167,25.5 153.833,25.5 153.5,25.5C 153.5,25.1667 153.5,24.8333 153.5,24.5C 152.833,24.5 152.5,24.1667 152.5,23.5C 151.833,23.5 151.5,23.1667 151.5,22.5 Z"/></g>
<g><path style="opacity:1" fill="#e54919" d="M 180.5,56.5 C 180.833,56.5 181.167,56.5 181.5,56.5C 181.5,56.8333 181.5,57.1667 181.5,57.5C 181.5,58.1667 181.833,58.5 182.5,58.5C 182.5,58.8333 182.5,59.1667 182.5,59.5C 182.5,60.1667 182.833,60.5 183.5,60.5C 183.5,60.8333 183.5,61.1667 183.5,61.5C 184.892,64.0067 185.892,66.6733 186.5,69.5C 187.323,71.9872 188.323,74.3206 189.5,76.5C 196.875,114.882 185.875,146.715 156.5,172C 153.778,174.358 150.778,176.191 147.5,177.5C 140.098,180.871 132.765,184.204 125.5,187.5C 110.943,190.493 96.2762,191.16 81.5,189.5C 75.367,187.124 69.0337,185.124 62.5,183.5C 60.847,183.34 59.5137,182.674 58.5,181.5C 58.2504,180.078 57.417,179.078 56,178.5C 55.3333,177.5 55.3333,176.5 56,175.5C 58.3333,176.833 60.6667,176.833 63,175.5C 64.3333,174.833 65.3333,173.833 66,172.5C 67.9979,173.271 69.6646,172.605 71,170.5C 72.3333,170.5 73.6667,170.5 75,170.5C 76.3333,169.833 77.3333,168.833 78,167.5C 78.3333,167.833 78.6667,168.167 79,168.5C 102.367,157.023 123.534,140.856 142.5,120C 140.833,119.667 139.167,119.333 137.5,119C 141.358,118.921 145.024,118.254 148.5,117C 138.753,116.845 129.753,116.345 121.5,115.5C 130.917,115.805 140.25,115.472 149.5,114.5C 150.105,116.481 151.105,116.815 152.5,115.5C 153.552,115.649 154.552,115.483 155.5,115C 158.333,111.5 161.167,108 164,104.5C 166.833,108 169.667,111.5 172.5,115C 176.088,115.611 177.254,114.111 176,110.5C 173.126,107.247 170.626,103.747 168.5,100C 170.597,96.2323 173.097,92.7323 176,89.5C 176.49,88.2068 176.657,86.8734 176.5,85.5C 174.801,85.3398 173.134,85.5065 171.5,86C 169.333,88.8333 167.167,91.6667 165,94.5C 164.31,95.7383 163.81,95.7383 163.5,94.5C 163.527,92.5266 163.527,90.5266 163.5,88.5C 166.597,82.6214 169.597,76.288 172.5,69.5C 171.282,68.1973 171.615,67.1973 173.5,66.5C 174.629,62.5012 176.296,59.5012 178.5,57.5C 177.36,55.9222 176.86,54.2555 177,52.5C 177.949,54.0931 179.115,55.4264 180.5,56.5 Z"/></g>
<g><path style="opacity:0.035" fill="#733320" d="M 13.5,64.5 C 13.3713,66.2161 13.038,67.8828 12.5,69.5C 11.5028,69.5299 10.8361,69.0299 10.5,68C 11.5152,66.6269 11.5152,65.4602 10.5,64.5C 10.3284,63.5084 10.6618,62.8417 11.5,62.5C 11.4346,62.9382 11.6012,63.2716 12,63.5C 13.0875,61.0684 13.5875,61.4017 13.5,64.5 Z"/></g>
<g><path style="opacity:0.058" fill="#1b0d07" d="M 181.5,50.5 C 199.002,80.2998 201.169,110.966 188,142.5C 171.786,175.215 145.62,194.215 109.5,199.5C 104.833,199.5 100.167,199.5 95.5,199.5C 95.1667,198.167 94.8333,198.167 94.5,199.5C 92.8333,199.5 91.1667,199.5 89.5,199.5C 47.4721,192.646 19.6387,168.98 6,128.5C 0.330378,106.246 1.83038,84.9129 10.5,64.5C 11.5152,65.4602 11.5152,66.6269 10.5,68C 10.8361,69.0299 11.5028,69.5299 12.5,69.5C 11.6772,71.9872 10.6772,74.3206 9.5,76.5C 9.16667,79.8333 8.83333,83.1667 8.5,86.5C 7.86377,90.5856 7.53044,94.7523 7.5,99C 8.67263,136.551 25.6726,164.051 58.5,181.5C 59.5137,182.674 60.847,183.34 62.5,183.5C 68.3655,186.676 74.6988,188.676 81.5,189.5C 83.2922,190.309 85.2922,190.809 87.5,191C 95.5,191.667 103.5,191.667 111.5,191C 116.44,190.432 121.107,189.265 125.5,187.5C 133.637,185.762 140.97,182.429 147.5,177.5C 150.778,176.191 153.778,174.358 156.5,172C 185.875,146.715 196.875,114.882 189.5,76.5C 188.323,74.3206 187.323,71.9872 186.5,69.5C 187.497,69.5299 188.164,69.0299 188.5,68C 186.498,62.1633 183.831,56.6633 180.5,51.5C 180.624,50.8933 180.957,50.56 181.5,50.5 Z"/></g>
<g><path style="opacity:0.055" fill="#712b17" d="M 9.5,76.5 C 8.71003,77.6085 8.21003,78.9419 8,80.5C 7.41629,77.7433 7.74962,75.0766 9,72.5C 9.49001,73.7932 9.65668,75.1266 9.5,76.5 Z"/></g>
<g><path style="opacity:1" fill="#fef2f0" d="M 44.5,75.5 C 45.657,77.1376 46.8236,78.8043 48,80.5C 50.2738,88.2111 48.1072,94.2111 41.5,98.5C 45.0745,103.059 47.7411,108.059 49.5,113.5C 48.6857,115.273 47.3524,115.773 45.5,115C 41.7744,110.272 38.4411,105.272 35.5,100C 33.1902,99.5034 30.8568,99.3367 28.5,99.5C 28.6658,104.179 28.4992,108.845 28,113.5C 26.0312,116.124 24.1978,116.124 22.5,113.5C 22.3334,100.163 22.5001,86.8292 23,73.5C 30.4023,71.7599 37.569,72.4265 44.5,75.5 Z"/></g>
<g><path style="opacity:1" fill="#fdf3f0" d="M 147.5,78.5 C 140.167,78.5 132.833,78.5 125.5,78.5C 125.5,82.8333 125.5,87.1667 125.5,91.5C 131.167,91.5 136.833,91.5 142.5,91.5C 143.139,92.0968 143.472,92.9302 143.5,94C 143.316,95.3756 142.649,96.2089 141.5,96.5C 136.167,96.5 130.833,96.5 125.5,96.5C 125.182,101.032 125.515,105.366 126.5,109.5C 133.841,109.334 141.174,109.5 148.5,110C 149.38,111.356 149.714,112.856 149.5,114.5C 140.25,115.472 130.917,115.805 121.5,115.5C 121.217,114.711 120.717,114.044 120,113.5C 119.333,100.5 119.333,87.5 120,74.5C 120.5,74 121,73.5 121.5,73C 130.5,72.3333 139.5,72.3333 148.5,73C 150.078,75.3388 149.745,77.1722 147.5,78.5 Z"/></g>
<g><path style="opacity:0.055" fill="#722c18" d="M 189.5,76.5 C 189.343,75.1266 189.51,73.7932 190,72.5C 191.422,75.0301 191.755,77.6967 191,80.5C 190.79,78.9419 190.29,77.6085 189.5,76.5 Z"/></g>
<g><path style="opacity:1" fill="#ec7e66" d="M 147.5,78.5 C 140.687,79.4912 133.687,79.8245 126.5,79.5C 126.5,83.1667 126.5,86.8333 126.5,90.5C 132.026,90.1786 137.36,90.5119 142.5,91.5C 136.833,91.5 131.167,91.5 125.5,91.5C 125.5,87.1667 125.5,82.8333 125.5,78.5C 132.833,78.5 140.167,78.5 147.5,78.5 Z"/></g>
<g><path style="opacity:1" fill="#f1a292" d="M 36.5,79.5 C 33.8333,79.5 31.1667,79.5 28.5,79.5C 28.5,84.1667 28.5,88.8333 28.5,93.5C 27.5128,88.6946 27.1795,83.6946 27.5,78.5C 30.7131,78.19 33.7131,78.5233 36.5,79.5 Z"/></g>
<g><path style="opacity:1" fill="#e64f21" d="M 36.5,79.5 C 42.3736,80.9968 44.0403,84.6635 41.5,90.5C 37.6178,93.1608 33.2845,94.1608 28.5,93.5C 28.5,88.8333 28.5,84.1667 28.5,79.5C 31.1667,79.5 33.8333,79.5 36.5,79.5 Z"/></g>
<g><path style="opacity:1" fill="#fdf0ed" d="M 79.5,92.5 C 80.7003,95.7023 80.7003,98.8689 79.5,102C 72.5079,102.5 65.5079,102.666 58.5,102.5C 58.7438,105.263 60.0771,107.429 62.5,109C 66.9654,109.734 71.2987,109.234 75.5,107.5C 78.3962,108.024 79.0628,109.524 77.5,112C 71.4474,115.987 65.1141,116.487 58.5,113.5C 51.6152,107.291 50.1152,99.9576 54,91.5C 62.984,81.9403 71.484,82.2736 79.5,92.5 Z"/></g>
<g><path style="opacity:1" fill="#fdefec" d="M 93.5,84.5 C 101.297,83.4835 107.463,86.1501 112,92.5C 113.563,100.087 113.896,107.754 113,115.5C 111.999,118.173 110.499,120.507 108.5,122.5C 100.084,128.341 92.2508,127.675 85,120.5C 84.0141,118.075 84.6807,116.409 87,115.5C 89.1561,116.985 91.3228,118.485 93.5,120C 101.374,122 105.874,119.167 107,111.5C 105.786,113.049 104.286,114.215 102.5,115C 88.2004,116.536 81.5337,110.036 82.5,95.5C 85.1667,90.8333 88.8333,87.1667 93.5,84.5 Z"/></g>
<g><path style="opacity:1" fill="#fdf0ed" d="M 163.5,94.5 C 163.81,95.7383 164.31,95.7383 165,94.5C 167.167,91.6667 169.333,88.8333 171.5,86C 173.134,85.5065 174.801,85.3398 176.5,85.5C 176.657,86.8734 176.49,88.2068 176,89.5C 173.097,92.7323 170.597,96.2323 168.5,100C 170.626,103.747 173.126,107.247 176,110.5C 177.254,114.111 176.088,115.611 172.5,115C 169.667,111.5 166.833,108 164,104.5C 161.167,108 158.333,111.5 155.5,115C 154.552,115.483 153.552,115.649 152.5,115.5C 151.859,114.518 151.193,113.518 150.5,112.5C 153.628,108.404 156.628,104.238 159.5,100C 157.702,96.9143 155.536,94.0809 153,91.5C 151.872,89.6547 151.372,87.6547 151.5,85.5C 153.199,85.3398 154.866,85.5065 156.5,86C 158.698,89.0228 161.031,91.8562 163.5,94.5 Z"/></g>
<g><path style="opacity:1" fill="#e8562b" d="M 62.5,90.5 C 68.1777,89.3386 72.1777,91.3386 74.5,96.5C 69.2079,97.4948 63.8746,97.8282 58.5,97.5C 58.9613,94.6967 60.2947,92.3634 62.5,90.5 Z"/></g>
<g><path style="opacity:1" fill="#e74d1f" d="M 93.5,90.5 C 103.474,89.3083 107.974,93.6416 107,103.5C 104.081,109.025 99.5812,110.858 93.5,109C 86.8987,102.837 86.8987,96.6706 93.5,90.5 Z"/></g>
<g><path style="opacity:0.055" fill="#601e0f" d="M 5.5,86.5 C 5.39132,95.0048 5.55799,103.672 6,112.5C 4.16884,103.86 4.00217,95.1929 5.5,86.5 Z"/></g>
<g><path style="opacity:0.055" fill="#5f1e0e" d="M 192.5,85.5 C 194.904,94.3152 195.07,103.315 193,112.5C 193.726,103.505 193.56,94.5053 192.5,85.5 Z"/></g>
<g><path style="opacity:1" fill="#ef9686" d="M 141.5,96.5 C 136.695,97.4872 131.695,97.8205 126.5,97.5C 126.5,101.5 126.5,105.5 126.5,109.5C 125.515,105.366 125.182,101.032 125.5,96.5C 130.833,96.5 136.167,96.5 141.5,96.5 Z"/></g>
<g><path style="opacity:0.765" fill="#a03310" d="M 147.5,177.5 C 140.97,182.429 133.637,185.762 125.5,187.5C 132.765,184.204 140.098,180.871 147.5,177.5 Z"/></g>
<g><path style="opacity:1" fill="#a23310" d="M 62.5,183.5 C 69.0337,185.124 75.367,187.124 81.5,189.5C 74.6988,188.676 68.3655,186.676 62.5,183.5 Z"/></g>
<g><path style="opacity:0.635" fill="#9b300f" d="M 125.5,187.5 C 121.107,189.265 116.44,190.432 111.5,191C 103.5,191.667 95.5,191.667 87.5,191C 85.2922,190.809 83.2922,190.309 81.5,189.5C 96.2762,191.16 110.943,190.493 125.5,187.5 Z"/></g>
</svg>
